<?xml version="1.0" standalone="no"?>
<!DOCTYPE svg PUBLIC "-//W3C//DTD SVG 20010904//EN"
 "http://www.w3.org/TR/2001/REC-SVG-20010904/DTD/svg10.dtd">
<svg version="1.0" xmlns="http://www.w3.org/2000/svg"
 width="128.000000pt" height="128.000000pt" viewBox="0 0 128.000000 128.000000"
 preserveAspectRatio="xMidYMid meet">
<metadata>
Created by potrace 1.14, written by Peter Selinger 2001-2017
</metadata>
<g transform="translate(0.000000,128.000000) scale(0.100000,-0.100000)"
fill="#000000" stroke="none">
<path d="M560 1230 l0 -50 -40 0 -40 0 0 -80 0 -80 -40 0 -40 0 0 -80 0 -80
-40 0 -40 0 0 -80 0 -80 -40 0 -40 0 0 -80 0 -80 -40 0 -40 0 0 -80 0 -80 -40
0 -40 0 0 -80 0 -80 -40 0 -40 0 0 -80 0 -80 40 0 c38 0 40 -2 40 -30 l0 -30
560 0 560 0 0 30 c0 28 2 30 40 30 l40 0 0 80 0 80 -40 0 -40 0 0 80 0 80 -40
0 -40 0 0 80 0 80 -40 0 -40 0 0 80 0 80 -40 0 -40 0 0 80 0 80 -40 0 -40 0 0
80 0 80 -40 0 -40 0 0 80 0 80 -40 0 -40 0 0 50 0 50 -80 0 -80 0 0 -50z m160
-130 l0 -80 40 0 40 0 0 -80 0 -80 40 0 40 0 0 -80 0 -80 40 0 40 0 0 -80 0
-80 40 0 40 0 0 -80 0 -80 40 0 40 0 0 -80 0 -80 40 0 40 0 0 -80 0 -80 -560
0 -560 0 0 80 0 80 40 0 40 0 0 80 0 80 40 0 40 0 0 80 0 80 40 0 40 0 0 80 0
80 40 0 40 0 0 80 0 80 40 0 40 0 0 80 0 80 40 0 40 0 0 80 0 80 80 0 80 0 0
-80z"/>
<path d="M560 620 l0 -240 80 0 80 0 0 240 0 240 -80 0 -80 0 0 -240z"/>
<path d="M560 220 l0 -80 80 0 80 0 0 80 0 80 -80 0 -80 0 0 -80z"/>
</g>
</svg>
